<?xml version="1.0" standalone="no"?>
<!DOCTYPE svg PUBLIC "-//W3C//DTD SVG 20010904//EN"
 "http://www.w3.org/TR/2001/REC-SVG-20010904/DTD/svg10.dtd">
<svg version="1.0" xmlns="http://www.w3.org/2000/svg"
 width="723.000000pt" height="723.000000pt" viewBox="0 0 723.000000 723.000000"
 preserveAspectRatio="xMidYMid meet">
<metadata>
Created by potrace 1.11, written by Peter Selinger 2001-2013
</metadata>
<g transform="translate(0.000000,723.000000) scale(0.100000,-0.100000)"
fill="#000000" stroke="none">
<path d="M3487 7224 c-1 -1 -54 -5 -117 -8 -97 -6 -177 -14 -285 -30 -567 -83
-1122 -308 -1585 -644 -58 -42 -114 -84 -125 -93 -233 -192 -444 -403 -601
-604 -214 -274 -393 -585 -517 -900 -47 -119 -100 -272 -112 -325 -2 -8 -13
-46 -24 -85 -31 -113 -73 -329 -87 -447 -3 -29 -7 -64 -10 -78 -24 -146 -24
-609 1 -800 2 -19 7 -55 10 -80 5 -40 25 -162 41 -245 13 -71 66 -270 105
-390 94 -297 249 -614 432 -890 56 -84 200 -274 257 -339 118 -134 237 -253
386 -386 327 -293 848 -582 1284 -713 185 -55 409 -106 535 -122 28 -4 77 -10
110 -15 33 -4 67 -8 75 -8 8 0 53 -4 100 -8 203 -18 668 0 790 31 8 2 35 7 60
10 384 53 874 233 1260 465 278 166 469 318 717 567 361 363 639 804 824 1305
33 90 105 334 114 387 3 19 8 38 10 41 3 4 7 25 11 45 3 21 8 47 10 59 14 66
23 117 29 166 3 30 8 66 10 80 29 207 35 638 10 810 -2 14 -6 50 -10 80 -34
284 -112 595 -217 865 -17 44 -35 84 -40 89 -4 6 -8 16 -8 23 0 14 -107 232
-169 347 -173 316 -470 683 -766 943 -118 103 -285 232 -374 288 -9 6 -18 12
-21 15 -3 3 -16 12 -30 20 -14 8 -63 37 -110 66 -305 185 -654 326 -1005 408
-169 40 -266 58 -381 71 -33 4 -69 8 -82 10 -68 11 -495 27 -505 19z m468 -77
c335 -36 658 -115 960 -234 181 -71 423 -192 533 -264 24 -16 45 -29 48 -29
12 0 228 -154 322 -229 297 -237 537 -499 749 -816 292 -437 495 -974 560
-1480 3 -22 6 -51 8 -65 26 -199 27 -698 0 -823 -2 -12 -6 -42 -9 -67 -4 -38
-27 -181 -40 -245 -33 -165 -128 -482 -176 -590 -5 -11 -30 -67 -55 -125 -251
-574 -668 -1084 -1192 -1457 -358 -255 -788 -452 -1204 -552 -193 -46 -265
-58 -504 -86 -132 -16 -425 -21 -565 -10 -97 7 -305 30 -360 40 -570 99 -1086
321 -1543 664 -84 62 -154 117 -157 121 -3 4 -27 26 -55 50 -254 216 -521 537
-712 855 -134 223 -268 524 -340 765 -50 167 -104 405 -117 515 -3 22 -8 60
-11 85 -13 93 -14 107 -20 200 -12 174 -6 537 11 624 2 10 6 42 8 70 9 86 55
325 87 446 138 522 398 1019 738 1410 68 79 285 298 361 365 501 443 1180 754
1835 841 22 3 51 7 65 10 14 2 66 7 115 10 50 4 92 8 94 10 5 5 514 -4 566 -9z"/>
<path d="M3589 5602 c-39 -3 -48 -7 -59 -30 -7 -15 -59 -135 -117 -267 -58
-132 -111 -253 -118 -270 -8 -16 -62 -140 -120 -275 -59 -135 -115 -263 -125
-285 -10 -22 -39 -89 -65 -150 -26 -60 -56 -130 -67 -155 -23 -51 -26 -58
-103 -235 -31 -71 -65 -148 -75 -170 -10 -22 -109 -249 -220 -505 -112 -256
-216 -493 -231 -528 -16 -34 -29 -65 -29 -67 0 -3 -9 -24 -20 -48 -11 -23 -58
-130 -104 -237 l-85 -195 51 -3 c28 -2 54 0 58 5 4 4 58 125 120 268 62 143
123 283 135 310 12 28 80 182 150 343 l128 292 894 -2 895 -3 265 -607 266
-608 53 0 c30 0 54 2 54 4 0 2 -63 149 -141 327 -175 402 -497 1144 -788 1814
-122 281 -228 524 -236 540 -16 36 -311 715 -316 730 -2 6 -25 9 -50 7z m89
-352 c44 -102 146 -338 227 -525 80 -187 152 -353 160 -370 33 -73 365 -844
365 -848 0 -3 -380 -5 -845 -5 -465 0 -845 4 -845 8 0 8 100 241 174 405 12
27 168 384 347 792 178 408 327 739 330 735 4 -4 43 -90 87 -192z"/>
</g>
</svg>
