<?xml version="1.0" ?><svg enable-background="new 0 0 64 64" version="1.1" viewBox="0 0 64 64" xml:space="preserve" xmlns="http://www.w3.org/2000/svg" xmlns:xlink="http://www.w3.org/1999/xlink"><g id="Layer_3"><g><g><path d="M32.001,63.251c-17.23,0-31.25-14.02-31.25-31.25s14.02-31.25,31.25-31.25s31.25,14.02,31.25,31.25     S49.231,63.251,32.001,63.251z" fill="#FFFFFF"/><path d="M32,1.5c16.818,0,30.5,13.682,30.5,30.5S48.818,62.5,32,62.5S1.5,48.818,1.5,32S15.182,1.5,32,1.5 M32,0     C14.327,0,0,14.327,0,32c0,17.673,14.327,32,32,32s32-14.327,32-32C64,14.327,49.673,0,32,0L32,0z" fill="#E5E5E5"/></g></g><g><g><path d="M49.939,29.645c-0.788,0-1.538,0.158-2.224,0.441c-0.433-5.203-4.785-9.292-10.099-9.292     c-1.639,0-3.174,0.408-4.543,1.1V41.33h16.848c0.006,0,0.012,0.001,0.018,0.001c3.227,0,5.843-2.616,5.843-5.843     C55.782,32.261,53.166,29.645,49.939,29.645z" fill="#333333"/><g><defs><path d="M32.376,22.264c-1.459,0.886-2.68,2.125-3.537,3.605c-1.338-1.096-3.048-1.755-4.913-1.755       c-3.682,0-6.759,2.569-7.552,6.01c-0.71-0.306-1.491-0.478-2.313-0.478c-3.227,0-5.843,2.616-5.843,5.843       c0,3.199,2.571,5.793,5.759,5.839v0.003h0.066c0.006,0,0.012,0.001,0.018,0.001s0.012-0.001,0.018-0.001h18.296V22.264z" id="SVGID_3_"/></defs><clipPath id="SVGID_2_"><use overflow="visible" xlink:href="#SVGID_3_"/></clipPath><line clip-path="url(#SVGID_2_)" fill="none" stroke="#333333" stroke-miterlimit="10" stroke-width="1.5" x1="30.739" x2="30.739" y1="20.76" y2="43.878"/><line clip-path="url(#SVGID_2_)" fill="none" stroke="#333333" stroke-miterlimit="10" stroke-width="1.5" x1="27.624" x2="27.624" y1="20.793" y2="43.911"/><line clip-path="url(#SVGID_2_)" fill="none" stroke="#333333" stroke-miterlimit="10" stroke-width="1.5" x1="24.51" x2="24.51" y1="20.793" y2="43.911"/><line clip-path="url(#SVGID_2_)" fill="none" stroke="#333333" stroke-miterlimit="10" stroke-width="1.5" x1="21.396" x2="21.396" y1="20.793" y2="43.911"/><line clip-path="url(#SVGID_2_)" fill="none" stroke="#333333" stroke-miterlimit="10" stroke-width="1.5" x1="18.281" x2="18.281" y1="20.793" y2="43.911"/><line clip-path="url(#SVGID_2_)" fill="none" stroke="#333333" stroke-miterlimit="10" stroke-width="1.5" x1="15.167" x2="15.167" y1="20.793" y2="43.911"/><line clip-path="url(#SVGID_2_)" fill="none" stroke="#333333" stroke-miterlimit="10" stroke-width="1.5" x1="12.053" x2="12.053" y1="20.793" y2="43.911"/><line clip-path="url(#SVGID_2_)" fill="none" stroke="#333333" stroke-miterlimit="10" stroke-width="1.5" x1="8.939" x2="8.939" y1="20.793" y2="43.911"/></g></g></g></g></svg>