<?xml version="1.0" ?><svg enable-background="new 0 0 32 32" version="1.1" viewBox="0 0 32 32" xml:space="preserve" xmlns="http://www.w3.org/2000/svg" xmlns:xlink="http://www.w3.org/1999/xlink"><g id="Style_2_copy_3"><g><path d="M16,0C7.163,0,0,7.163,0,16c0,8.836,7.163,16,16,16s16-7.164,16-16C32,7.163,24.837,0,16,0z" fill="#333333"/></g><g><path d="M14.068,9.289c-1.232-0.03-2.594,0.065-3.951,0.274c-0.958,0.143-1.91,0.321-2.826,0.637    c-0.696,0.238-1.047,0.994-0.815,1.66c0.244,0.702,0.964,1.065,1.672,0.851c1.755-0.524,3.564-0.714,5.385-0.779    c1.19-0.042,2.374,0.036,3.552,0.161c1.44,0.149,2.856,0.422,4.242,0.833c1.178,0.351,2.303,0.827,3.374,1.434    c0.619,0.351,1.303,0.214,1.726-0.315c0.428-0.541,0.399-1.208-0.077-1.731c-0.173-0.196-0.411-0.309-0.637-0.434    c-1.351-0.744-2.779-1.285-4.266-1.678C19.084,9.563,16.668,9.259,14.068,9.289z M13.961,14.18    c-0.494,0.012-0.94,0.024-1.386,0.048c-1.488,0.071-2.939,0.333-4.367,0.756c-0.643,0.19-0.958,0.779-0.768,1.416    c0.167,0.559,0.774,0.875,1.38,0.714c0.208-0.054,0.417-0.131,0.631-0.179c2.368-0.583,4.766-0.66,7.176-0.327    c2.279,0.309,4.439,0.976,6.414,2.172c0.589,0.357,1.238,0.095,1.511-0.339c0.345-0.541,0.179-1.238-0.375-1.577    c-0.702-0.434-1.434-0.809-2.19-1.119C19.394,14.686,16.698,14.192,13.961,14.18z M13.384,18.857    c-0.446,0.018-0.893,0.042-1.333,0.083c-1.136,0.095-2.255,0.292-3.368,0.547c-0.512,0.119-0.797,0.583-0.69,1.047    c0.113,0.5,0.547,0.774,1.083,0.672c0.292-0.054,0.583-0.113,0.875-0.173c1.19-0.256,2.404-0.369,3.618-0.417    c0.791-0.03,1.583,0.018,2.368,0.101c1.369,0.143,2.684,0.47,3.951,1c0.613,0.256,1.184,0.589,1.773,0.898    c0.422,0.22,0.946,0.06,1.16-0.339c0.244-0.452,0.113-0.946-0.321-1.208c-0.69-0.422-1.416-0.774-2.172-1.083    C18.102,19.065,15.77,18.791,13.384,18.857z" fill="#FFFFFF"/></g></g></svg>